<mxfile host="app.diagrams.net" agent="Mozilla/5.0 (Windows NT 10.0; Win64; x64; rv:133.0) Gecko/20100101 Firefox/133.0" version="25.0.3">
  <diagram name="Страница — 1" id="RLgaj-ISaTxDurFNdkSA">
    <mxGraphModel dx="922" dy="574" grid="1" gridSize="10" guides="1" tooltips="1" connect="1" arrows="1" fold="1" page="1" pageScale="1" pageWidth="827" pageHeight="1169" math="0" shadow="0">
      <root>
        <mxCell id="0" />
        <mxCell id="1" parent="0" />
        <mxCell id="lL82PYuvzp6JTuAGO124-3" value="" style="edgeStyle=orthogonalEdgeStyle;rounded=0;orthogonalLoop=1;jettySize=auto;html=1;" edge="1" parent="1" source="lL82PYuvzp6JTuAGO124-1" target="lL82PYuvzp6JTuAGO124-2">
          <mxGeometry relative="1" as="geometry" />
        </mxCell>
        <mxCell id="lL82PYuvzp6JTuAGO124-1" value="double f(double x)" style="shape=process;whiteSpace=wrap;html=1;backgroundOutline=1;" vertex="1" parent="1">
          <mxGeometry x="340" width="130" height="60" as="geometry" />
        </mxCell>
        <mxCell id="lL82PYuvzp6JTuAGO124-2" value="return exp(x) - exp(-x) - 2;" style="ellipse;whiteSpace=wrap;html=1;" vertex="1" parent="1">
          <mxGeometry x="316.25" y="90" width="177.5" height="80" as="geometry" />
        </mxCell>
        <mxCell id="lL82PYuvzp6JTuAGO124-4" value="{" style="text;html=1;align=center;verticalAlign=middle;whiteSpace=wrap;rounded=0;" vertex="1" parent="1">
          <mxGeometry x="360" y="60" width="60" height="30" as="geometry" />
        </mxCell>
        <mxCell id="lL82PYuvzp6JTuAGO124-5" value="}" style="text;html=1;align=center;verticalAlign=middle;whiteSpace=wrap;rounded=0;" vertex="1" parent="1">
          <mxGeometry x="375" y="170" width="60" height="30" as="geometry" />
        </mxCell>
      </root>
    </mxGraphModel>
  </diagram>
</mxfile>
